<svg xmlns="http://www.w3.org/2000/svg" viewBox="0 0 620 430"><g stroke="#1976D2" stroke-width="3" fill="none"><path d="M310 210 115 120M310 210l195-90M310 210 115 310M310 210l195 100"/></g><g><path fill="#dcecff" d="m310 95 115 65-115 65-115-65z"/><path fill="#1976D2" d="m195 160 115 65v55l-115-65z"/><path fill="#0F5DB7" d="m425 160-115 65v55l115-65z"/><path fill="#dcecff" d="m310 205 115 65-115 65-115-65z"/><path fill="#1976D2" d="m195 270 115 65v55l-115-65z"/><path fill="#0F5DB7" d="m425 270-115 65v55l115-65z"/><path fill="#fff" d="m310 170 45 25-45 25-45-25z"/><path fill="#1976D2" d="m310 180 25 15-25 15-25-15z"/></g><g fill="#0F2747" font-family="Arial" font-size="16"><text x="10" y="110">Project Controls &amp; Scheduling</text><text x="430" y="110">AI &amp; Analytics</text><text x="20" y="330">Data &amp; Integration</text><text x="425" y="330">Security &amp; Reliability</text></g></svg>